<svg width="218" height="48" viewBox="0 0 218 48" fill="none" xmlns="http://www.w3.org/2000/svg">
<path d="M136.329 18.5944C136.329 18.5944 134.655 15.2449 139.459 13.8614C144.3 12.478 145.319 11.8955 145.465 11.0581C145.61 10.1843 147.612 21.5433 136.329 18.5944Z" fill="#65BC4D"/>
<path d="M68.6335 42.1154C68.6335 42.1154 68.7427 44.045 68.8519 44.7367C68.961 45.5013 68.9974 46.0474 70.0529 46.4478C70.8172 46.7391 72.8554 47.3216 76.1674 47.0668C81.1536 46.7027 85.0479 43.9357 85.1571 38.8024C85.2663 34.4335 82.3182 32.7952 78.4967 30.1375C75.767 28.2443 75.4395 27.4434 75.3303 26.3875C75.2211 25.2589 76.2402 23.9119 78.5331 23.8026C81.2264 23.6934 82.6094 25.0769 83.0461 25.2953C83.4101 25.4774 83.8468 25.441 83.956 24.7128C84.1016 23.6934 84.138 22.31 84.0652 21.327C83.9924 20.4532 83.7377 19.7615 82.3182 19.361C81.0808 19.0333 79.4794 18.56 76.4949 18.7421C70.9628 19.1425 67.6872 22.9289 67.8328 27.4434C67.9784 31.4481 70.4533 33.3777 73.4377 35.1616C76.4949 37.0184 78.5331 37.783 78.5695 39.8218C78.6059 41.2052 77.4776 42.261 75.1119 42.3702C72.9646 42.5159 70.708 41.9334 69.9801 41.6421C69.325 41.3508 68.5971 41.1324 68.6335 42.1154Z" fill="#65BC4D"/>
<path d="M37.0772 2.10535L37.0044 2.06894C35.403 1.19517 33.2921 -0.224702 29.325 0.0301468C22.4826 0.430624 18.7702 5.01791 18.7702 13.0639C18.7702 13.61 18.7702 14.1561 18.8066 14.7386C18.8066 14.7386 18.843 15.6488 18.9158 16.3405C17.9331 16.3769 15.7494 16.4133 15.7494 16.4133C15.531 16.4133 15.349 16.5225 15.2035 16.6682C15.0943 16.8138 15.0215 16.9594 15.0215 17.1415C15.0215 17.1779 15.0215 17.2143 15.0215 17.2143L15.5674 21.838C15.6038 22.0564 15.713 22.2384 15.8586 22.3477C16.0406 22.4569 16.2589 22.5297 16.4409 22.4569C16.4409 22.4569 18.7702 21.9472 19.7165 21.7287C20.0441 23.0394 26.3769 47.4321 26.3769 47.4321C26.4133 47.6142 26.5589 47.7962 26.7409 47.9054C26.9228 48.0146 27.1412 48.0146 27.3232 47.9782L30.1985 46.6676C30.4896 46.5583 30.708 46.3035 30.708 45.9758C30.708 45.9394 30.708 45.9394 30.708 45.903C30.344 41.6434 29.9801 37.3838 29.6161 33.0877C29.3614 30.1024 29.1066 27.1534 28.8518 24.168C28.779 23.185 28.5243 22.1292 28.597 21.1462C28.7062 19.3987 29.3977 19.6171 31.3267 19.1074C31.7999 18.9982 32.2366 18.8526 32.7098 18.7434C33.0009 18.6706 33.3285 18.5613 33.4741 18.3065C33.5832 18.1244 33.5468 17.9424 33.5468 17.724C33.5105 16.7774 32.8189 14.775 33.1465 14.1197C32.637 14.1925 28.0147 14.775 28.0147 14.957C28.0147 14.6294 28.0147 14.2653 28.0147 14.2653C28.0511 9.78723 29.9073 6.80186 32.7825 6.61982C33.3285 6.58342 34.2384 7.12952 34.8935 7.53L35.7306 8.00329C35.949 8.11251 36.1673 8.11251 36.3857 8.00329C36.6041 7.89407 36.7497 7.67563 36.7861 7.45718L37.4776 2.8699C37.514 2.57864 37.3684 2.25098 37.0772 2.10535Z" fill="#65BC4D"/>
<path d="M21.5362 39.8595C21.5362 39.8595 24.8846 32.214 14.0023 29.8112C3.15646 27.3719 0.827138 26.2433 0.353995 24.3501C-0.119148 22.457 -3.06719 47.9419 21.5362 39.8595Z" fill="#65BC4D"/>
<path d="M100.588 19.0729C97.5669 19.0729 94.6917 20.2015 92.8355 22.6044C92.9447 17.471 93.0175 12.4104 93.1267 7.27703C93.1267 7.1314 93.1267 6.94936 93.0175 6.84014C92.8719 6.6217 92.5444 6.65811 92.2532 6.69451C90.2514 7.09499 88.2133 7.49547 86.2115 7.89595C86.0295 7.93235 85.8112 7.96876 85.702 8.1508C85.5928 8.29642 85.5928 8.44205 85.6292 8.62409C85.9568 20.2015 86.2843 33.3809 86.6483 46.5238C86.6483 46.6694 86.6483 46.8515 86.7575 46.9971C86.903 47.1791 87.1578 47.1791 87.3762 47.1791L91.4161 47.1063C91.5981 47.1063 92.2168 47.1791 92.326 47.0699C92.508 46.9243 92.5444 46.6694 92.5444 46.451C92.6535 41.0264 92.0348 34.4367 93.3087 29.1577C93.5634 28.0654 93.9274 26.9732 94.6189 26.0631C95.3104 25.1893 96.4387 24.534 97.5669 24.6432C98.5496 24.7524 99.3867 25.4077 99.9327 26.2087C100.479 27.0096 100.77 27.9562 100.952 28.9028C101.862 34.109 101.243 40.7351 101.316 46.1233C101.316 46.3418 101.316 46.5602 101.461 46.7423C101.643 46.9971 102.007 46.9971 102.335 46.9971C103.499 46.9243 104.737 46.9607 106.593 46.9243C106.775 46.9243 106.957 46.9243 107.103 46.8151C107.321 46.6694 107.357 46.2326 107.394 45.9777C107.903 40.189 107.94 33.5993 107.94 27.8106C108.012 24.0243 106.629 19.0729 100.588 19.0729Z" fill="#65BC4D"/>
<path d="M142.477 46.408C141.786 36.1412 141.131 24.3089 140.985 21.2871C140.949 20.923 140.876 20.7046 140.33 20.7046C140.075 20.7046 139.311 20.6682 138.51 20.5954C137.491 20.4861 136.436 20.3041 136.108 20.3041C135.78 20.2677 135.489 20.559 135.489 20.923C135.489 24.6001 135.489 41.2746 135.344 46.4444C135.344 46.8812 135.453 47.0997 136.144 47.1361C136.836 47.1725 137.928 47.0633 139.129 47.0269C140.294 47.0269 141.531 47.1361 141.895 47.1361C142.259 47.1361 142.514 46.772 142.477 46.408Z" fill="#F7941D"/>
<path d="M133.343 45.4652C133.016 44.7735 132.47 43.1716 132.361 40.2954C132.252 36.2906 132.434 24.8588 133.307 7.38343C133.343 6.83732 132.797 6.40044 132.252 6.58247C131.451 6.83732 130.323 7.12858 129.34 7.38343C128.212 7.67468 126.901 7.89313 126.101 8.03875C125.7 8.11157 125.409 8.43923 125.409 8.83971C125.518 13.1721 125.555 16.9949 125.628 20.3443C124.572 19.6162 123.116 19.0701 121.114 19.0701C115.546 19.0701 109.723 23.002 109.723 33.7421C109.723 41.6789 113.581 46.9215 119.877 46.9215C123.225 46.9215 125.227 45.5016 126.392 44.2274C127.047 45.7929 128.321 47.1399 130.432 47.1399C131.815 47.1399 132.652 46.703 133.089 46.3754C133.38 46.1205 133.489 45.7565 133.343 45.4652ZM122.206 41.9701C118.676 41.9701 117.038 38.2202 117.038 33.5601C117.038 28.6815 118.421 24.2399 122.134 24.2399C125.191 24.2399 125.7 26.7156 125.7 28.8272C125.737 32.3587 125.737 35.0892 125.737 37.128C125.737 37.6741 125.518 41.9701 122.206 41.9701Z" fill="#F7941D"/>
<path d="M157.148 18.4517C155.401 18.4881 152.307 19.2526 150.305 23.3302C150.269 22.0924 150.233 20.9273 150.233 19.9443C150.233 19.5439 149.832 19.289 149.468 19.3982C148.704 19.6531 147.503 20.0172 146.52 20.272C145.647 20.4905 144.701 20.6361 144.009 20.7089C143.572 20.7817 143.281 21.1458 143.318 21.5827C143.863 27.0073 145.538 43.3177 145.865 46.6307C145.902 46.9584 146.193 47.104 146.52 47.0312C146.52 47.0312 147.867 47.1404 148.85 47.0312C149.832 46.922 150.961 46.922 150.961 46.922C151.252 46.8856 151.507 46.6307 151.47 46.3395C151.397 44.8468 151.106 40.1503 150.851 35.1989C150.742 32.5048 151.033 30.6116 151.47 29.2646C152.562 26.0243 154.782 25.7695 155.255 25.0413C155.51 24.6773 156.092 23.4394 156.675 22.1288C157.293 20.7453 157.985 19.6167 157.985 18.9978C157.985 18.7065 157.585 18.4517 157.148 18.4517Z" fill="#F7941D"/>
<path d="M213.524 42.0424C213.524 41.9696 213.488 41.8968 213.451 41.8604C213.306 41.642 213.015 41.642 212.76 41.7148C212.068 41.824 211.377 42.0424 210.685 42.1153C209.994 42.1881 209.23 42.0788 208.684 41.6056C207.956 40.9866 207.883 39.9308 207.846 38.9842C207.701 34.7974 207.81 30.4286 207.919 26.2418C207.919 25.8413 207.956 25.4044 208.283 25.186C208.465 25.0768 208.684 25.0403 208.938 25.0403C209.812 25.0039 210.685 24.9675 211.559 24.9311C211.959 24.9311 212.396 24.8583 212.614 24.5306C212.76 24.3122 212.723 24.2394 212.723 23.9845C212.651 22.7103 212.541 21.436 212.396 20.1982C212.396 20.0526 212.36 19.8705 212.25 19.7613C212.141 19.6521 211.959 19.6521 211.777 19.6521C210.503 19.6521 209.23 19.6521 207.956 19.6521C207.956 17.6497 207.919 15.6109 207.919 13.6085C207.919 13.1352 207.846 12.5527 207.41 12.3707C207.191 12.2615 206.9 12.2979 206.645 12.3707C205.59 12.5891 204.534 12.7712 203.515 12.9896C203.261 13.026 202.969 13.0988 202.824 13.3173C202.678 13.4993 202.678 13.7178 202.642 13.9362C202.496 15.9386 202.351 17.9046 202.205 19.907C202.205 19.9798 199.112 20.0162 198.82 20.4895C198.602 20.8535 198.82 21.7273 198.857 22.1278C198.93 22.7831 199.002 23.4384 199.075 24.0938C199.112 24.2758 199.148 24.4942 199.294 24.6035C199.439 24.7127 199.621 24.7127 199.803 24.7491C200.385 24.7855 200.968 24.7855 201.55 24.8219C201.514 29.1179 201.477 33.414 201.404 37.6736C201.404 39.0935 201.368 40.5133 201.659 41.8604C201.95 43.2439 202.533 44.5909 203.588 45.5375C204.644 46.4841 206.063 46.9938 207.483 47.103C208.902 47.2122 210.321 46.9574 211.704 46.6297C212.25 46.4841 212.869 46.3021 213.124 45.7924C213.269 45.5375 213.306 45.2099 213.306 44.9186C213.379 44.0448 213.415 43.1711 213.488 42.2973C213.524 42.1881 213.524 42.1153 213.524 42.0424Z" fill="#F7941D"/>
<path d="M177.234 29.1524C177.234 23.6185 174.541 18.7764 167.881 18.7764C162.749 18.7764 155.615 22.4171 155.615 32.247C155.615 35.7056 156.27 38.6182 157.544 40.9483C159.801 45.0987 163.986 47.3559 169.955 47.3559C173.849 47.3559 177.343 46.4821 177.453 45.1715C177.525 44.4069 177.598 42.9871 177.671 42.1861C177.707 41.7856 177.307 41.4944 176.943 41.64C175.997 42.0041 173.049 42.4774 170.501 42.4774C167.553 42.4774 164.168 41.0575 162.931 36.361C166.534 35.3052 172.248 33.4848 174.723 32.5382C177.307 31.5552 177.234 30.7907 177.234 29.1524ZM168.536 29.9533C167.953 30.2082 164.532 31.5552 162.458 32.3562C162.458 26.5311 164.605 24.1646 167.007 24.1646C169.191 24.1646 170.392 26.0578 170.392 27.9509C170.392 29.1888 169.373 29.5893 168.536 29.9533Z" fill="#F7941D"/>
<path d="M192.012 47.3574C195.761 47.3574 198.491 46.4836 198.636 45.173C198.709 44.4084 198.746 42.9885 198.782 42.1876C198.818 41.7871 198.454 41.4959 198.09 41.6415C197.181 42.0056 194.997 42.4788 192.558 42.4788C190.083 42.4788 187.245 41.3502 185.825 37.8916C185.789 37.8187 185.716 37.7095 185.716 37.6731C185.57 37.309 185.425 36.8722 185.352 36.3989C185.352 36.3625 185.352 36.3625 185.352 36.3261C185.097 35.1246 184.988 33.7047 184.915 32.7946C184.879 32.3577 184.915 31.6295 184.915 31.6295C185.097 26.2777 187.063 24.1297 189.283 24.1297C191.102 24.1297 191.794 25.2947 192.194 27.2243C192.631 29.1539 198.782 27.5156 198.6 26.4962C197.799 22.3093 195.47 18.7415 190.083 18.7415C185.134 18.7415 178.291 22.3822 178.291 32.2121C178.255 41.8599 183.095 47.3574 192.012 47.3574Z" fill="#F7941D"/>
<path d="M46.3197 18.4517C44.5727 18.4881 41.4791 19.2526 39.4773 23.3302C39.441 22.0924 39.4046 20.9273 39.4046 19.9443C39.4046 19.5439 39.0042 19.289 38.6402 19.3982C37.8759 19.6531 36.6749 20.0172 35.6922 20.272C34.8187 20.4905 33.8724 20.6361 33.1809 20.7089C32.7442 20.7817 32.453 21.1458 32.4894 21.5827C33.0353 27.0073 34.7095 43.3177 35.0371 46.6307C35.0735 46.9584 35.3646 47.104 35.6922 47.0312C35.6922 47.0312 37.0388 47.1404 38.0215 47.0312C39.0042 46.922 40.1325 46.922 40.1325 46.922C40.4236 46.8856 40.6784 46.6307 40.642 46.3395C40.5692 44.8468 40.2781 40.1503 40.0233 35.1989C39.9141 32.5048 40.2053 30.6116 40.642 29.2646C41.7339 26.0243 43.954 25.7695 44.4271 25.0413C44.6819 24.6773 45.2642 23.4394 45.8466 22.1288C46.4653 20.7453 47.1568 19.6167 47.1568 18.9978C47.1204 18.7065 46.7201 18.4517 46.3197 18.4517Z" fill="#65BC4D"/>
<path d="M66.3748 29.1524C66.3748 23.6185 63.6816 18.7764 57.0212 18.7764C51.8894 18.7764 44.7559 22.4171 44.7559 32.247C44.7559 35.7056 45.411 38.6182 46.6848 40.9483C48.9414 45.0987 53.1268 47.3559 59.0957 47.3559C62.99 47.3559 66.484 46.4821 66.5932 45.1715C66.666 44.4069 66.7388 42.9871 66.8116 42.1861C66.848 41.7856 66.4476 41.4944 66.0837 41.64C65.1374 42.0041 62.1893 42.4774 59.6417 42.4774C56.6936 42.4774 53.3088 41.0575 52.0714 36.361C55.6745 35.3052 61.3886 33.4848 63.8635 32.5382C66.484 31.5552 66.3748 30.7907 66.3748 29.1524ZM57.6763 29.9533C57.094 30.2082 53.6728 31.5552 51.5982 32.3562C51.5982 26.5311 53.7456 24.1646 56.1477 24.1646C58.3314 24.1646 59.5325 26.0578 59.5325 27.9509C59.5689 29.1888 58.5498 29.5893 57.6763 29.9533Z" fill="#65BC4D"/>
<path d="M216.362 43.7507C217.236 43.7507 218 44.4425 218 45.3526C218 46.2628 217.236 46.9546 216.362 46.9546C215.489 46.9546 214.725 46.2628 214.725 45.3526C214.725 44.4061 215.453 43.7507 216.362 43.7507ZM216.362 44.0056C215.635 44.0056 215.052 44.5881 215.052 45.3526C215.052 46.1172 215.635 46.6997 216.362 46.6997C217.09 46.6997 217.673 46.1536 217.673 45.3526C217.636 44.5881 217.09 44.0056 216.362 44.0056ZM215.998 46.2628H215.707V44.4061H216.399C216.836 44.4061 217.054 44.5517 217.054 44.9158C217.054 45.2434 216.836 45.3891 216.581 45.4255L217.09 46.2264H216.763L216.253 45.4255H215.926V46.2628H215.998ZM215.998 45.2434H216.326C216.654 45.2434 216.799 45.1342 216.799 44.9522C216.799 44.7701 216.726 44.6609 216.399 44.6609H215.998V45.2434V45.2434Z" fill="#F7941D"/>
</svg>
